PathFileType	3	(X/Y/Z)	C:\Users\koon_\Desktop\
DataRate	CameraRate	NumFrames	NumMarkers	Units	OrigDataRate	OrigDataStartFrame	OrigNumFrames
100.0	100.0	9	27	mm	100.0	1	3531	
Frame#	Time	get:LFHD			get:RFHD			get:LBHD			get:RBHD			get:C7			get:T10			get:CLAV			get:STRN			get:RBAK			get:LSHO			get:LUPA			get:LELB			get:LFRA			get:LWRA			get:LWRB			get:LFIN			get:RSHO			get:RUPA			get:RELB			get:RFRA			get:RWRA			get:RWRB			get:RFIN			get:LASI			get:RASI			get:LPSI			get:RPSI			
		X1	Y1	Z1	X2	Y2	Z2	X3	Y3	Z3	X4	Y4	Z4	X5	Y5	Z5	X6	Y6	Z6	X7	Y7	Z7	X8	Y8	Z8	X9	Y9	Z9	X10	Y10	Z10	X11	Y11	Z11	X12	Y12	Z12	X13	Y13	Z13	X14	Y14	Z14	X15	Y15	Z15	X16	Y16	Z16	X17	Y17	Z17	X18	Y18	Z18	X19	Y19	Z19	X20	Y20	Z20	X21	Y21	Z21	X22	Y22	Z22	X23	Y23	Z23	X24	Y24	Z24	X25	Y25	Z25	X26	Y26	Z26	X27	Y27	Z27	
1	0	36.061077	1527.8964	-12.658627	-104.88122	1530.4591	-54.0732	73.538437	1528.0671	-146.00743	-73.783882	1525.058	-186.47166	-9.6694641	1329.4473	-219.7113	-2.0602117	1115.26	-258.40167	-7.8269858	1238.3173	-32.29948	-10.964061	1083.557	7.4404111	-99.966522	1255.6429	-250.20477	157.11208	1328.0477	-148.26978	197.03671	1113.3037	-105.53253	230.82193	1000.767	-163.5352	213.11917	947.58081	-83.711624	180.93231	783.37109	-47.97477	249.92242	785.44135	-78.291885	239.48074	715.51276	-39.130611	-152.33966	1332.7744	-129.1042	-220.0797	1209.1342	-123.17395	-256.05481	995.92303	-163.63493	-232.68677	876.53754	-58.824188	-228.19684	779.41895	-33.992764	-285.09497	789.52271	-82.504715	-273.42456	718.49268	-21.930126	123.54815	890.00574	-55.917294	-167.70612	912.72278	-68.453308	39.752991	927.21063	-242.95799	-47.580276	928.51184	-250.93466
2	0.01	36.125347	1527.8755	-12.587944	-104.79502	1530.4696	-53.977253	73.610168	1528.0532	-145.94292	-73.843285	1525.1566	-186.16209	-9.6411896	1329.454	-219.65427	-2.0662596	1115.2861	-258.4209	-7.7724166	1238.3428	-32.286575	-10.969093	1083.5436	7.5033231	-99.960709	1255.7507	-250.31168	157.14751	1328.0326	-148.23785	197.00079	1113.2606	-105.50191	230.82378	1000.6985	-163.44974	213.08202	947.52747	-83.640167	180.87547	783.38873	-47.882103	249.84076	785.42749	-78.196381	239.41202	715.51086	-38.994377	-152.32039	1332.812	-129.03583	-220.00389	1209.1497	-123.09411	-256.1105	995.9422	-163.62305	-232.75261	876.5462	-58.802925	-228.2356	779.4184	-34.003338	-285.15878	789.62317	-82.549286	-273.48602	718.54114	-21.88843	123.52544	889.98511	-55.918404	-167.71976	912.74054	-68.392868	39.744797	927.16711	-242.83592	-47.561272	928.48926	-250.92587
3	0.02	36.206745	1527.8477	-12.539687	-104.71096	1530.4663	-53.886467	73.683525	1528.0201	-145.85628	-74.360146	1525.1132	-186.1835	-9.6149492	1329.4855	-219.70311	-2.0450416	1115.3201	-258.4086	-8.3899336	1238.2197	-32.10701	-10.995177	1083.526	7.480752	-99.920753	1255.7208	-250.20609	157.17424	1328.009	-148.16869	196.99689	1113.2391	-105.46741	230.79384	1000.6843	-163.43082	213.06021	947.52893	-83.61731	180.7863	783.38635	-47.790817	249.80141	785.40912	-78.110733	239.33252	715.54419	-38.841869	-152.26682	1332.8224	-129.00237	-216.90479	1208.5859	-119.3196	-256.11276	995.98169	-163.57956	-232.7554	876.56787	-58.801525	-228.31705	779.46448	-34.020515	-285.21417	789.65509	-82.608086	-273.54544	718.57349	-21.912868	123.53072	889.99329	-55.890404	-167.71941	912.76001	-68.397461	39.762054	927.1499	-242.77847	-47.576126	928.51892	-250.91013
4	0.03	36.284126	1527.8274	-12.460649	-104.62809	1530.4927	-53.864449	73.782173	1527.9868	-145.80307	-73.690605	1525.2065	-186.04463	-9.5670862	1329.4686	-219.56776	-2.0358555	1115.3627	-258.45142	-8.3820829	1238.1968	-32.011181	-10.948232	1083.5131	7.5397902	-99.887375	1255.7712	-250.24139	157.20207	1327.98	-148.17429	196.97243	1113.2136	-105.45624	230.75847	1000.6487	-163.35944	212.99213	947.49567	-83.519646	180.73521	783.35248	-47.712399	249.72469	785.38843	-77.994019	239.2718	715.54059	-38.734077	-152.24638	1332.8221	-128.95317	-220.05028	1209.2007	-123.10233	-255.51924	996.26465	-164.09773	-232.82095	876.59601	-58.784748	-228.39626	779.46808	-33.955601	-285.27942	789.66412	-82.518867	-273.64441	718.61047	-21.93614	123.53419	889.98932	-55.838741	-167.71982	912.74054	-68.392868	39.73354	927.11603	-242.69052	-47.574253	928.50482	-250.87082
5	0.04	36.387497	1527.7754	-12.374926	-104.55083	1530.5049	-53.763145	73.83551	1527.9647	-145.73721	-73.653244	1525.2021	-185.93144	-9.5656433	1329.4703	-219.56648	-2.0593925	1115.2838	-258.26953	-8.34793	1238.2197	-32.125427	-10.987663	1083.4976	7.5881057	-99.916267	1255.7494	-250.12267	157.23888	1327.9364	-148.12015	196.95238	1113.1807	-105.39475	230.71716	1000.5651	-163.27739	212.95158	947.47491	-83.451324	180.65276	783.33154	-47.631592	249.62584	785.33899	-77.905998	239.18822	715.53076	-38.633835	-152.21408	1332.8473	-128.91748	-216.91464	1208.625	-119.23494	-256.14392	996.0556	-163.61673	-232.87106	876.60834	-58.819637	-228.4319	779.46246	-34.022655	-285.3457	789.69446	-82.565262	-273.72757	718.62128	-21.91394	123.50895	889.95093	-55.840672	-167.70506	912.76947	-68.288216	39.725689	927.06598	-242.55051	-47.599609	928.50635	-250.873
6	0.05	36.449528	1527.7467	-12.306513	-104.47346	1530.5033	-53.673573	73.89563	1527.9478	-145.69017	-73.617775	1525.2332	-185.8344	-9.567029	1329.4641	-219.47466	-2.0456798	1115.3077	-258.27905	-8.3047247	1238.1863	-31.957607	-10.973158	1083.4784	7.5896454	-99.888664	1255.7754	-250.10013	157.27206	1327.9268	-148.07718	196.95444	1113.1281	-105.38384	230.64961	1000.5307	-163.24396	212.91682	947.44312	-83.37748	180.55264	783.33771	-47.52644	249.54674	785.30377	-77.809502	239.11702	715.54669	-38.49329	-152.18982	1332.8474	-128.86661	-216.93846	1208.6465	-119.27376	-256.15363	996.10016	-163.60008	-232.93263	876.6178	-58.794674	-228.51456	779.49078	-33.982292	-285.54578	789.45575	-80.211914	-273.81274	718.62244	-22.018507	123.57668	889.9516	-55.828999	-167.71146	912.74701	-68.288971	39.745312	927.08722	-242.59831	-47.560097	928.47797	-250.77966
7	0.06	36.547596	1527.7173	-12.222151	-104.3614	1530.5173	-53.571442	73.938667	1527.9264	-145.6232	-73.591721	1525.22	-185.72919	-9.513834	1329.4891	-219.46658	-2.0586984	1115.2758	-258.20792	-8.2963381	1238.1465	-31.935171	-10.949943	1083.465	7.6210165	-99.851524	1255.7854	-250.01448	157.30829	1327.8843	-148.06937	196.9398	1113.0914	-105.36008	230.62976	1000.4769	-163.18515	212.86691	947.40485	-83.342514	180.44647	783.30829	-47.40456	249.45441	785.24023	-77.718803	239.03415	715.51172	-38.379112	-152.18199	1332.86	-128.78473	-216.92711	1208.6628	-119.25037	-256.12	996.11023	-163.57684	-232.98906	876.69019	-58.774994	-228.5835	779.47009	-33.996986	-285.58972	789.45465	-80.303032	-273.92252	718.62915	-22.029085	123.53529	889.91968	-55.746864	-167.70863	912.74866	-68.284157	39.740147	927.09772	-242.58366	-47.583302	928.47998	-250.73862
8	0.07	36.603062	1527.6991	-12.202886	-104.28519	1530.5288	-53.469223	74.000183	1527.8868	-145.53587	-73.551598	1525.2345	-185.6136	-9.4925194	1329.4822	-219.42491	-2.068754	1115.2764	-258.14862	-8.2676001	1238.1918	-32.065853	-10.962422	1083.4548	7.6462646	-99.826057	1255.8123	-250.03802	157.35294	1327.8486	-148.01421	196.95876	1113.072	-105.30264	230.56979	1000.4189	-163.15703	212.79059	947.38354	-83.263275	180.3551	783.26697	-47.343765	249.36227	785.17065	-77.623291	238.94577	715.48523	-38.30582	-152.15282	1332.8828	-128.77531	-216.95032	1208.6686	-119.21806	-256.11264	996.1709	-163.60306	-233.00795	876.69189	-58.768703	-228.61903	779.49017	-34.033379	-285.63666	789.50964	-80.329956	-273.98865	718.65472	-22.008793	123.54089	889.91992	-55.745811	-167.73148	912.71106	-68.27253	39.73447	927.11078	-242.47066	-47.568867	928.51331	-250.7849
9	0.08	36.719067	1527.6567	-12.141955	-104.20728	1530.5583	-53.38538	74.031738	1527.8696	-145.47881	-73.452492	1525.2224	-185.50792	-9.4628334	1329.4967	-219.41879	-2.0696406	1115.2686	-258.13187	-8.2393408	1238.1926	-31.935137	-10.960423	1083.4525	7.6269236	-99.832771	1255.7897	-249.96544	157.3688	1327.8408	-148.00807	196.955	1113.0551	-105.22263	230.53903	1000.3773	-163.07834	212.7722	947.34534	-83.211052	180.25151	783.23187	-47.243336	249.25211	785.11823	-77.550926	238.80557	715.44147	-38.200378	-152.11191	1332.9095	-128.72742	-216.91309	1208.7065	-119.16467	-256.10788	996.19641	-163.58624	-233.0746	876.70227	-58.743526	-228.68822	779.51245	-34.020432	-285.67926	789.513	-80.444885	-274.06607	718.67767	-22.091328	123.52563	889.9212	-55.726234	-167.74222	912.70856	-68.209122	39.746918	927.15497	-242.56831	-47.556683	928.48938	-250.69965
